# xmcd
#
# Track frame offsets: 
#        150
#        13520
#        27468
#        40715
#        52674
#        64187
#        77925
#        91225
#        105436
#        118011
#        133518
#        146040
#        160836
#        172933
#        187330
#        199896
#
# Disc length: 2870 seconds
#
# Revision: 0
# Processed by: cddbd v1.4b42PL1 Copyright (c) Steve Scherf et al.
# Submitted via: ExactAudioCopy v0.90a11
#
DISCID=d40b3410
DTITLE=Jimmie Rodgers - Train Whistle Blues
DYEAR=1900
DGENRE=
TTITLE0=Train Whistle Blues
TTITLE1=Treasures Untold
TTITLE2=Somewhere Down Below The Dixon Line
TTITLE3=Hobo Bill's Last Ride
TTITLE4=Blue Yodel No. 5
TTITLE5=My Little Old Home Down In New Orleans
TTITLE6=High Powered Mama
TTITLE7=No Hard Times
TTITLE8=Jimmie's Texas Blues
TTITLE9=Ben Dewberry's Final Run
TTITLE10=My Good Gal's Gone-Blues
TTITLE11=Down The Old Road To Home
TTITLE12=Let Me Be Your Side Track
TTITLE13=Lullaby Yodel
TTITLE14=Any Old Time
TTITLE15=Mississippi Delta Blues
EXTD=
EXTT0=
EXTT1=
EXTT2=
EXTT3=
EXTT4=
EXTT5=
EXTT6=
EXTT7=
EXTT8=
EXTT9=
EXTT10=
EXTT11=
EXTT12=
EXTT13=
EXTT14=
EXTT15=
PLAYORDER=
